HIERARCHY
ROOT Hips
{
    OFFSET 0.000000 0.000000 0.000000
    CHANNELS 6 Xposition Yposition Zposition Zrotation Xrotation Yrotation
    JOINT Spine
    {
        OFFSET -0.000000 8.185774 0.000000
        CHANNELS 3 Zrotation Xrotation Yrotation
        JOINT Spine1
        {
            OFFSET -0.000000 23.949169 0.000000
            CHANNELS 3 Zrotation Xrotation Yrotation
            JOINT Neck
            {
                OFFSET -0.000000 23.850817 2.168256
                CHANNELS 3 Zrotation Xrotation Yrotation
                JOINT Head
                {
                    OFFSET -0.000000 13.975711 -1.996530
                    CHANNELS 3 Zrotation Xrotation Yrotation
                    End Site
                    {
                        OFFSET -0.000000 24.956627 0.000000
                    }
                }
            }
            JOINT LeftShoulder
            {
                OFFSET 3.979389 22.161966 -0.249083
                CHANNELS 3 Zrotation Xrotation Yrotation
                JOINT LeftArm
                {
                    OFFSET 10.812937 0.000000 0.000000
                    CHANNELS 3 Zrotation Xrotation Yrotation
                    JOINT LeftForeArm
                    {
                        OFFSET 31.697208 0.000000 0.000000
                        CHANNELS 3 Zrotation Xrotation Yrotation
                        JOINT LeftHand
                        {
                            OFFSET 27.047384 0.000000 0.000000
                            CHANNELS 3 Zrotation Xrotation Yrotation
                            End Site
                            {
                                OFFSET 14.973977 0.000000 0.000000
                            }
                        }
                    }
                }
            }
            JOINT RightShoulder
            {
                OFFSET -4.006446 22.161966 -0.249083
                CHANNELS 3 Zrotation Xrotation Yrotation
                JOINT RightArm
                {
                    OFFSET -10.812937 0.000000 0.000000
                    CHANNELS 3 Zrotation Xrotation Yrotation
                    JOINT RightForeArm
                    {
                        OFFSET -31.697208 0.000000 0.000000
                        CHANNELS 3 Zrotation Xrotation Yrotation
                        JOINT RightHand
                        {
                            OFFSET -27.047384 0.000000 0.000000
                            CHANNELS 3 Zrotation Xrotation Yrotation
                            End Site
                            {
                                OFFSET -14.973977 0.000000 0.000000
                            }
                        }
                    }
                }
            }
        }
    }
    JOINT LeftUpLeg
    {
        OFFSET 9.982651 0.000000 0.000000
        CHANNELS 3 Zrotation Xrotation Yrotation
        JOINT LeftLeg
        {
            OFFSET -0.000000 -38.511635 0.000000
            CHANNELS 3 Zrotation Xrotation Yrotation
            JOINT LeftFoot
            {
                OFFSET -0.000000 -44.789326 0.000000
                CHANNELS 3 Zrotation Xrotation Yrotation
                JOINT LeftToeBase
                {
                    OFFSET -0.000000 -6.488723 14.973977
                    CHANNELS 3 Zrotation Xrotation Yrotation
                    End Site
                    {
                        OFFSET -0.000000 0.000000 3.993060
                    }
                }
            }
        }
    }
    JOINT RightUpLeg
    {
        OFFSET -9.982651 0.000000 0.000000
        CHANNELS 3 Zrotation Xrotation Yrotation
        JOINT RightLeg
        {
            OFFSET -0.000000 -38.511635 0.000000
            CHANNELS 3 Zrotation Xrotation Yrotation
            JOINT RightFoot
            {
                OFFSET -0.000000 -44.789326 0.000000
                CHANNELS 3 Zrotation Xrotation Yrotation
                JOINT RightToeBase
                {
                    OFFSET -0.000000 -6.488723 14.973977
                    CHANNELS 3 Zrotation Xrotation Yrotation
                    End Site
                    {
                        OFFSET -0.000000 0.000000 3.993060
                    }
                }
            }
        }
    }
}
MOTION
Frames:    13
Frame Time:    0.008333
-9.953525    94.580124    229.327469    -0.048450    -0.336633    -175.990067    0.719367    -5.382432    -1.067199    -0.703935    -2.164718    -1.114323    8.247531    27.589098    5.379627    -13.538114    -12.304289    3.164667    13.977048    1.426164    -2.801030    -13.594149    1.596502    -2.998476    0.718052    2.577025    8.634421    -9.408730    2.579673    -0.690644    -16.226570    -2.071364    -2.982123    20.725370    -17.550423    -1.021848    -1.383121    -10.278271    4.015977    -28.553185    -6.365936    -15.254457    6.459671    3.484707    5.039050    -0.812406    5.226150    5.218072    -7.636904    -4.340981    10.342787    0.000000    0.000000    0.000000    -4.432619    1.507960    -9.752446    -1.559483    5.598904    -4.564852    7.561367    -2.138341    -15.862372    0.000000    0.000000    0.000000    
-9.947782    94.578598    229.338593    -0.044683    -0.359114    -175.994370    0.708189    -5.401608    -1.064312    -0.683343    -2.139891    -1.110507    8.261270    27.555882    5.369681    -13.561097    -12.314601    3.146079    13.980813    1.421906    -2.788064    -13.605173    1.564695    -3.005748    0.716808    2.586078    8.653336    -9.397138    2.588568    -0.690143    -16.242958    -2.082920    -2.987632    20.747480    -17.547722    -1.031445    -1.391486    -10.286707    4.032292    -28.545029    -6.377986    -15.243398    6.461722    3.448572    5.051056    -0.808600    5.235620    5.239861    -7.636967    -4.333876    10.313044    0.000000    0.000000    0.000000    -4.430219    1.470922    -9.756697    -1.554249    5.609277    -4.542968    7.559675    -2.137147    -15.891544    0.000000    0.000000    0.000000    
-9.945028    94.578262    229.341415    -0.041089    -0.360123    -175.994827    0.720005    -5.397822    -1.065827    -0.691423    -2.135051    -1.112716    8.241020    27.536001    5.362340    -13.535454    -12.312187    3.141181    13.977801    1.419591    -2.790413    -13.603097    1.553410    -2.985179    0.712081    2.593751    8.665800    -9.393076    2.596363    -0.688332    -16.247503    -2.080232    -2.997603    20.775547    -17.545660    -1.014176    -1.409221    -10.303774    4.043208    -28.500114    -6.400508    -15.244653    6.464287    3.444134    5.065374    -0.764679    5.247403    4.997333    -7.681099    -4.373636    10.468339    0.000000    0.000000    0.000000    -4.427486    1.458965    -9.793966    -1.556779    5.627031    -4.536745    7.556344    -2.146500    -15.849892    0.000000    0.000000    0.000000    
-9.941471    94.576591    229.346115    -0.042732    -0.369472    -175.996506    0.712213    -5.397764    -1.070014    -0.678120    -2.137288    -1.116258    8.212327    27.519466    5.368715    -13.510731    -12.314136    3.149192    13.957910    1.424078    -2.780354    -13.590977    1.566294    -2.976167    0.705187    2.587578    8.675144    -9.369524    2.590009    -0.682399    -16.255381    -2.079494    -2.991060    20.779425    -17.572426    -1.013837    -1.387808    -10.316617    4.053578    -28.546818    -6.406462    -15.248647    6.461462    3.431448    5.028603    -0.797828    5.241587    5.260466    -7.672258    -4.345666    10.319764    0.000000    0.000000    0.000000    -4.425875    1.440695    -9.788171    -1.563256    5.630192    -4.586089    7.543296    -2.136564    -15.811588    0.000000    0.000000    0.000000    
-9.935733    94.574371    229.351013    -0.034881    -0.380210    -176.004929    0.719516    -5.407738    -1.067655    -0.681966    -2.122005    -1.114318    8.210166    27.493637    5.362871    -13.500734    -12.306931    3.144017    13.971457    1.415494    -2.762147    -13.734402    1.956896    -3.047302    0.994925    2.427380    8.848633    -9.516897    2.417984    -0.811493    -16.261530    -2.091330    -2.994547    20.805895    -17.571491    -1.011392    -1.400611    -10.319330    4.061203    -28.524660    -6.413427    -15.242310    6.469068    3.413687    5.102231    -0.787830    5.247154    5.180078    -7.665617    -4.350181    10.334557    0.000000    0.000000    0.000000    -4.416269    1.422577    -9.776904    -1.560084    5.643138    -4.539783    7.532757    -2.166005    -15.848186    0.000000    0.000000    0.000000    
-9.933483    94.572815    229.357193    -0.040117    -0.403087    -176.000031    0.718682    -5.414593    -1.074338    -0.690370    -2.138990    -1.121208    8.210196    27.505770    5.350747    -13.503459    -12.322102    3.129953    13.972533    1.417118    -2.762093    -13.604861    1.535046    -2.967386    0.698205    2.601580    8.705220    -9.324051    2.602848    -0.666904    -16.257023    -2.087845    -2.991611    20.815838    -17.534937    -1.003019    -1.399309    -10.366062    4.065529    -28.556643    -6.449918    -15.266240    6.460583    3.384567    5.087189    -0.784801    5.245780    5.258438    -7.685214    -4.337514    10.270971    0.000000    0.000000    0.000000    -4.426158    1.387890    -9.791887    -1.557064    5.659661    -4.535246    7.531314    -2.164585    -15.841537    0.000000    0.000000    0.000000    
-9.928873    94.572067    229.358459    -0.038624    -0.403172    -176.016418    0.705447    -5.406597    -1.068771    -0.661482    -2.144565    -1.114452    8.198282    27.505648    5.333033    -13.509150    -12.320932    3.108857    13.955112    1.432534    -2.755082    -13.733217    1.917626    -3.032556    0.995183    2.424047    8.865984    -9.516034    2.411840    -0.780197    -16.270018    -2.093343    -2.994377    20.824209    -17.535463    -0.992560    -1.401204    -10.399341    4.055764    -28.570433    -6.481329    -15.267365    6.464859    3.386215    5.120312    -0.783399    5.253737    5.208324    -7.672780    -4.348982    10.299239    0.000000    0.000000    0.000000    -4.422709    1.378056    -9.788030    -1.558353    5.668858    -4.479709    7.509016    -2.179329    -15.892529    0.000000    0.000000    0.000000    
-9.927911    94.572517    229.360382    -0.042322    -0.414364    -176.012680    0.710135    -5.403963    -1.075115    -0.675838    -2.172463    -1.121478    8.189443    27.521305    5.324818    -13.488640    -12.312119    3.106736    13.950049    1.450167    -2.750143    -13.595702    1.502542    -2.970473    0.704478    2.607052    8.738230    -9.366642    2.608663    -0.676099    -16.263016    -2.079410    -2.988083    20.824442    -17.578993    -0.976346    -1.384629    -10.389737    4.043335    -28.550488    -6.479058    -15.252415    6.460205    3.385969    5.045711    -0.789155    5.225478    5.275644    -7.672874    -4.331194    10.305698    0.000000    0.000000    0.000000    -4.427921    1.366013    -9.805819    -1.560734    5.665357    -4.522448    7.543730    -2.162434    -15.824082    0.000000    0.000000    0.000000    
-9.924589    94.571014    229.360825    -0.039288    -0.420091    -176.015976    0.720879    -5.411286    -1.072793    -0.695572    -2.161321    -1.120064    8.196715    27.447525    5.323480    -13.454750    -12.209401    3.120163    13.967743    1.447091    -2.741460    -13.730456    1.910722    -3.029932    0.986323    2.446272    8.879337    -9.537557    2.434072    -0.771171    -16.266279    -2.095794    -2.998262    20.848276    -17.563364    -0.971309    -1.386747    -10.404196    4.038087    -28.573162    -6.490116    -15.253711    6.465335    3.379565    5.077121    -0.788840    5.228327    5.261322    -7.661120    -4.336646    10.289330    0.000000    0.000000    0.000000    -4.424820    1.362997    -9.794995    -1.554561    5.661361    -4.541630    7.535475    -2.171967    -15.816658    0.000000    0.000000    0.000000    
-9.922992    94.572609    229.359100    -0.047087    -0.420104    -176.012558    0.706906    -5.401765    -1.079817    -0.685998    -2.183770    -1.126280    8.185740    27.466948    5.303938    -13.444208    -12.200977    3.103704    13.953157    1.455318    -2.740523    -13.592797    1.510433    -2.957426    0.690542    2.612979    8.734577    -9.372732    2.614879    -0.666204    -16.268814    -2.094385    -2.994966    20.858585    -17.571075    -0.955746    -1.394339    -10.412003    4.031792    -28.589298    -6.494020    -15.259563    6.449576    3.373892    5.103225    -0.770564    5.240221    5.222915    -7.653795    -4.335864    10.303295    0.000000    0.000000    0.000000    -4.436068    1.363525    -9.829709    -1.548423    5.662190    -4.512233    7.525451    -2.170769    -15.827419    0.000000    0.000000    0.000000    
-9.920415    94.570419    229.359558    -0.052679    -0.438635    -176.015579    0.697235    -5.419556    -1.077391    -0.689864    -2.184666    -1.123597    8.193922    27.434341    5.293163    -13.426307    -12.133844    3.102717    13.965273    1.448174    -2.730072    -13.728213    1.911392    -3.024921    0.976089    2.457158    8.883173    -9.562258    2.447887    -0.795689    -16.269560    -2.098610    -3.001033    20.866566    -17.589218    -0.952749    -1.385650    -10.408623    4.031692    -28.597828    -6.487279    -15.268976    6.447968    3.365907    5.042634    -0.777736    5.232588    5.245721    -7.670532    -4.351961    10.335186    0.000000    0.000000    0.000000    -4.440770    1.352054    -9.794204    -1.547175    5.654274    -4.512847    7.539490    -2.188953    -15.846772    0.000000    0.000000    0.000000    
-9.918210    94.571846    229.353973    -0.047611    -0.434125    -176.014526    0.693260    -5.415463    -1.079760    -0.673077    -2.192576    -1.125423    8.148787    27.422609    5.297533    -13.346581    -12.094581    3.125480    13.944492    1.454378    -2.722109    -13.587048    1.530707    -2.962586    0.701929    2.611268    8.732541    -9.435131    2.615366    -0.698964    -16.284239    -2.096554    -2.999655    20.879675    -17.539806    -0.956582    -1.391417    -10.426344    4.045209    -28.611794    -6.499786    -15.280719    6.454503    3.381285    5.040174    -0.777148    5.215498    5.250922    -7.665633    -4.345781    10.331723    0.000000    0.000000    0.000000    -4.432946    1.368462    -9.796699    -1.541426    5.635921    -4.548628    7.514668    -2.165303    -15.832815    0.000000    0.000000    0.000000    
-9.915106    94.569031    229.353958    -0.054649    -0.459311    -176.023285    0.687597    -5.446588    -1.078919    -0.685951    -2.182912    -1.124685    8.157120    27.424503    5.286245    -13.351286    -12.096140    3.113412    13.952782    1.453750    -2.705021    -13.581676    1.541688    -2.961090    0.701833    2.582080    8.712767    -9.445264    2.585541    -0.688902    -16.288425    -2.087662    -3.009848    20.902033    -17.573460    -0.933523    -1.390346    -10.418903    4.045946    -28.634398    -6.491233    -15.272420    6.445333    3.356332    5.059851    -0.772396    5.223654    5.225150    -7.659813    -4.356163    10.330983    0.000000    0.000000    0.000000    -4.442907    1.337700    -9.822335    -1.541408    5.657883    -4.428680    7.534549    -2.231963    -15.888257    0.000000    0.000000    0.000000    
